<svg width="60" height="15" viewBox="0 0 60 15" fill="none" xmlns="http://www.w3.org/2000/svg">
    <path d="M3.31579 14.747V13.3146C3.81416 14.2415 5.15807 15 6.52306 15C9.557 15 11.6158 12.7036 11.6158 9.67018C11.6158 6.63628 9.557 4.34035 6.52306 4.34035C5.13595 4.34035 3.83576 5.14083 3.31579 6.0468V0H0V14.747H3.31579ZM5.82976 12.2611C4.33465 12.2611 3.31579 11.0811 3.31579 9.66968C3.31579 8.27922 4.33413 7.07826 5.82976 7.07826C7.28167 7.07826 8.30002 8.27922 8.30002 9.66968C8.30002 11.0811 7.28167 12.2611 5.82976 12.2611ZM17.8508 12.2611C16.3773 12.2611 15.3585 11.0811 15.3585 9.66968C15.3585 8.27922 16.3768 7.07826 17.8508 7.07826C19.3244 7.07826 20.3432 8.27922 20.3432 9.66968C20.3432 11.0811 19.3244 12.2611 17.8508 12.2611ZM23.659 4.59285H20.3432V6.0463C19.8232 5.14033 18.5447 4.33986 17.1576 4.33986C14.1236 4.33986 12.0648 6.63628 12.0648 9.66968C12.0648 12.7036 14.1236 14.9995 17.1576 14.9995C18.5231 14.9995 19.8448 14.241 20.3432 13.3141V14.7465H23.659V4.59285ZM24.9541 4.59285V14.747H28.2698V9.64868C28.2698 8.06873 28.9199 7.07826 30.2854 7.07826C31.6726 7.07826 32.1277 8.08973 32.1277 9.54318V14.747H35.4435V8.72171C35.4435 7.26826 35.2918 6.27779 34.6201 5.49832C34.0348 4.76084 33.0597 4.33986 31.6947 4.33986C30.0478 4.33986 28.8556 4.97183 28.2709 6.0673V4.59235H24.9541V4.59285ZM41.9532 12.2611C40.4797 12.2611 39.4608 11.0811 39.4608 9.66968C39.4608 8.27922 40.4792 7.07826 41.9532 7.07826C43.4267 7.07826 44.4456 8.27922 44.4456 9.66968C44.4451 11.0811 43.4267 12.2611 41.9532 12.2611ZM44.4451 13.3146V14.747H47.7608V0H44.4451V6.0463C43.9251 5.14033 42.6465 4.33986 41.2594 4.33986C38.2254 4.33986 36.1666 6.63628 36.1666 9.66968C36.1666 12.7036 38.2254 14.9995 41.2594 14.9995C42.6249 15 43.9467 14.2415 44.4451 13.3146ZM54.1924 12.2611C52.7188 12.2611 51.7 11.0811 51.7 9.66968C51.7 8.27922 52.7183 7.07826 54.1924 7.07826C55.6659 7.07826 56.6847 8.27922 56.6847 9.66968C56.6842 11.0811 55.6659 12.2611 54.1924 12.2611ZM60 4.59285H56.6842V6.0463C56.1642 5.14033 54.8856 4.33986 53.4985 4.33986C50.4646 4.33986 48.4058 6.63628 48.4058 9.66968C48.4058 12.7036 50.4646 14.9995 53.4985 14.9995C54.864 14.9995 56.1858 14.241 56.6842 13.3141V14.7465H60V4.59285Z" fill="white"/>
</svg>
