<svg width="32" height="22" viewBox="0 0 32 22" fill="none" xmlns="http://www.w3.org/2000/svg">
    <path d="M31.3334 3.67606C31.1522 3.0297 30.7993 2.44452 30.3121 1.98273C29.8111 1.50673 29.1972 1.16624 28.5281 0.993394C26.0241 0.333394 15.9921 0.333394 15.9921 0.333394C11.8099 0.285811 7.62866 0.495093 3.47209 0.96006C2.80301 1.14568 2.19017 1.49378 1.68809 1.97339C1.19476 2.44806 0.837424 3.03339 0.650757 3.67473C0.202348 6.09039 -0.0155202 8.54319 9.04891e-05 11.0001C-0.0159095 13.4547 0.201424 15.9067 0.650757 18.3254C0.833424 18.9641 1.18942 19.5467 1.68409 20.0174C2.17876 20.4881 2.79476 20.8281 3.47209 21.0081C6.00942 21.6667 15.9921 21.6667 15.9921 21.6667C20.1796 21.7144 24.3662 21.5051 28.5281 21.0401C29.1972 20.8672 29.8111 20.5267 30.3121 20.0507C30.7991 19.589 31.1516 19.0038 31.3321 18.3574C31.7922 15.9427 32.0159 13.4888 32.0001 11.0307C32.0347 8.5622 31.8113 6.09681 31.3334 3.67473V3.67606ZM12.8028 15.5654V6.43606L21.1494 11.0014L12.8028 15.5654Z" fill="white"/>
</svg>
