<svg width="106" height="11" viewBox="0 0 106 11" fill="none" xmlns="http://www.w3.org/2000/svg">
    <path d="M7.90763 11C0.982932 11 0 7.79719 0 5.68775V5.25703C0 3.13655 0.916667 0 7.90763 0H8.43775C15.1857 0 16.1135 2.93775 16.1135 4.40663V4.60542H11.1988C11.1325 4.32932 10.8454 3.13655 8.10643 3.13655C5.46687 3.13655 4.95884 4.30723 4.95884 5.34538V5.51104C4.95884 6.52711 5.53313 7.83032 8.11747 7.83032C10.9006 7.83032 11.1546 6.49398 11.1988 6.26205H16.1135V6.56024C16.1135 8.01807 15.1857 10.989 8.43775 10.989H7.90763V11Z" fill="white"/>
    <path d="M15.4067 10.8011L19.8355 5.26801L15.6276 0.19873H21.5694L23.9549 3.33528L26.3626 0.19873H31.9067L27.8756 5.25696L32.2491 10.8011H26.4288L23.7561 7.47684L21.1276 10.8011H15.4067Z" fill="white"/>
    <path d="M45.9658 7.7419H48.5059C51.764 7.7419 52.0511 6.26198 52.0511 5.51098V5.41158C52.0511 4.66058 51.7529 3.25797 48.5059 3.25797H45.9658V7.7419ZM41.1726 0.19873H49.2349C55.3202 0.19873 57.0431 2.58427 57.0431 5.21279V5.65455C57.0431 8.16158 55.6515 10.8011 49.2349 10.8011H41.1726V0.19873Z" fill="white"/>
    <path d="M69.247 5.34538C69.247 4.31827 68.5181 3.13655 65.8565 3.13655C63.1175 3.13655 62.4659 4.31827 62.4659 5.34538V5.51104C62.4659 6.5492 63.1948 7.83032 65.8565 7.83032C68.5181 7.83032 69.247 6.57129 69.247 5.53313V5.34538ZM66.1988 0C73.2229 0 74.2169 3.13655 74.2169 5.25703V5.68775C74.2169 7.78614 73.2229 11 66.1988 11H65.5141C58.5011 11 57.5071 7.7751 57.5071 5.68775V5.25703C57.5071 3.13655 58.5011 0 65.5141 0H66.1988Z" fill="white"/>
    <path d="M80.7882 10.9558C75.1336 10.9558 74.6145 7.63146 74.6145 5.98588V5.88648H79.231C79.2751 6.27303 79.3856 7.49893 81.3294 7.49893H81.3956C83.0743 7.49893 83.5161 6.47182 83.5161 5.37845V0.19873H88.3314V5.45576C88.3314 7.67564 87.7239 10.9558 81.749 10.9558H80.7882Z" fill="white"/>
    <path d="M100.789 5.34538C100.789 4.31827 100.06 3.13655 97.3987 3.13655C94.6598 3.13655 94.0082 4.31827 94.0082 5.34538V5.51104C94.0082 6.5492 94.7371 7.83032 97.3987 7.83032C100.06 7.83032 100.789 6.57129 100.789 5.53313V5.34538ZM97.7411 0C104.765 0 105.759 3.13655 105.759 5.25703V5.68775C105.759 7.78614 104.765 11 97.7411 11H97.0563C90.0433 11 89.0493 7.7751 89.0493 5.68775V5.25703C89.0493 3.13655 90.0433 0 97.0563 0H97.7411Z" fill="white"/>
</svg>
